<svg xmlns="http://www.w3.org/2000/svg" viewBox="0 0 599.894 109"><path d="M66.129 58.5a20.2 20.2 0 0 0-1.9-3.2 3.132 3.132 0 0 0-2.4-1.2 2.494 2.494 0 0 0-2.6 2.7 4.191 4.191 0 0 0 .4 1.5 9.292 9.292 0 0 1 .5 1c.1.2.1.3-.1.4s-.3 0-.4-.1c-.1-.2-.6-.9-.6-.9a2.906 2.906 0 0 0-2.4-1.4 2.818 2.818 0 0 0-2.8 2.9 2.768 2.768 0 0 0 .3 1.3 3.329 3.329 0 0 0 .3.6c.1.2.1.3-.1.4-.1.1-.3 0-.4-.1-.1-.2-.3-.5-.4-.7a2.476 2.476 0 0 0-2.1-1.1 2.606 2.606 0 0 0-2.6 2.7 4.058 4.058 0 0 0 .5 1.7 19.362 19.362 0 0 1 1.7 8.9c0 9-7.1 16.4-15.6 16.4a16.709 16.709 0 0 1-16.3-11.3.569.569 0 0 0-.7-.4l-16.8 5.2a.569.569 0 0 0-.4.7 35.212 35.212 0 0 0 34.1 24.5c15.4 0 28.1-10.3 32.8-24.2a35.661 35.661 0 0 0-2-26.3m-31.3-2.4a1.6 1.6 0 1 1 1.6-1.6 1.522 1.522 0 0 1-1.6 1.6m0-14a1.6 1.6 0 1 1 1.6-1.6 1.522 1.522 0 0 1-1.6 1.6m0 7a1.6 1.6 0 1 1 1.6-1.6 1.522 1.522 0 0 1-1.6 1.6m12.9 7.9a5.8 5.8 0 0 0-1.2-1 16.924 16.924 0 0 0-2.9-1.7 9.625 9.625 0 0 0-1.8-.7 2.254 2.254 0 0 0-1.8 0 1.867 1.867 0 0 0-1.1 2.3c.2.8.8 1.1 1.5 1.4a14.814 14.814 0 0 1 2.5 1.4 12.141 12.141 0 0 1 2 1.4 2.112 2.112 0 0 0 2.7 0 2.206 2.206 0 0 0 .1-3.1m5.8-4.1a14.318 14.318 0 0 0-3.5-2.7 4.328 4.328 0 0 0-1.2-.5 2.073 2.073 0 0 0-2.1.7 2.149 2.149 0 0 0-.2 2.3 4.357 4.357 0 0 0 1.4 1.3c.8.6 1.4 1.1 2.2 1.7a3.229 3.229 0 0 0 1.7 1 2.226 2.226 0 0 0 2.2-1.2 2.174 2.174 0 0 0-.5-2.6m-10.2-5.9a13.78 13.78 0 0 0-1.6-.6 4.735 4.735 0 0 0-1.7-.1 1.87 1.87 0 0 0-1.1 2.8 2.55 2.55 0 0 0 1.2.8c.4.1.7.3 1.2.4.4.1.8.3 1.1.4a2.155 2.155 0 0 0 1.7-.5c1.1-1 .7-2.6-.8-3.2m-1.7-7.5c-.3-.1-.6-.1-.9-.2a2.082 2.082 0 0 0-1.3.3 1.866 1.866 0 0 0-.6 2.3 1.589 1.589 0 0 0 1 .8 5.274 5.274 0 0 0 1.2.3 1.776 1.776 0 0 0 .6-3.5m8.8 3a9.143 9.143 0 0 0-1.4-.7 5.257 5.257 0 0 0-1.7-.4 1.993 1.993 0 0 0-2.1 2.4 2.094 2.094 0 0 0 1.1 1.5c.4.2.8.4 1.3.6s1 .5 1.5.7a1.979 1.979 0 0 0 1.8-.4 2.382 2.382 0 0 0-.5-3.7m9.2 6.8c-.5-.6-1-1.1-1.5-1.6a9.55 9.55 0 0 0-1.6-1.2 2.56 2.56 0 0 0-1.9-.4 2.107 2.107 0 0 0-1.6 1.3 2.221 2.221 0 0 0 .4 2.2c.4.4.8.7 1.2 1.1.6.5 1.1 1 1.6 1.5a2.842 2.842 0 0 0 1.7.9 2.2 2.2 0 0 0 2-1.2 2.275 2.275 0 0 0-.3-2.6m-56 1.2a20.2 20.2 0 0 0 1.9 3.2 3.132 3.132 0 0 0 2.4 1.2 2.494 2.494 0 0 0 2.6-2.7 4.191 4.191 0 0 0-.4-1.5 9.292 9.292 0 0 1-.5-1c-.1-.2-.1-.3.1-.4s.3 0 .4.1c.1.2.6.9.6.9a2.906 2.906 0 0 0 2.4 1.4 2.818 2.818 0 0 0 2.8-2.9 2.768 2.768 0 0 0-.3-1.3 3.329 3.329 0 0 0-.3-.6c-.1-.2-.1-.3.1-.4.1-.1.3 0 .4.1.1.2.3.5.4.7a2.476 2.476 0 0 0 2.1 1.1 2.606 2.606 0 0 0 2.6-2.7 4.058 4.058 0 0 0-.5-1.7 19.362 19.362 0 0 1-1.7-8.9c0-9 7.1-16.4 15.6-16.4a16.709 16.709 0 0 1 16.3 11.3.569.569 0 0 0 .7.4l16.8-5.2a.569.569 0 0 0 .4-.7A35.212 35.212 0 0 0 34.429 0c-15.4 0-28.1 10.3-32.8 24.2a35.7 35.7 0 0 0 2 26.3m31.2 16.3a1.6 1.6 0 1 1-1.6 1.6 1.645 1.645 0 0 1 1.6-1.6m0-7a1.6 1.6 0 1 1-1.6 1.6 1.645 1.645 0 0 1 1.6-1.6m-12.8-7.8a5.8 5.8 0 0 0 1.2 1 16.924 16.924 0 0 0 2.9 1.7 9.625 9.625 0 0 0 1.8.7 2.254 2.254 0 0 0 1.8 0 1.867 1.867 0 0 0 1.1-2.3c-.2-.8-.8-1.1-1.5-1.4a14.814 14.814 0 0 1-2.5-1.4 12.141 12.141 0 0 1-2-1.4 2.09 2.09 0 0 0-2.8 3.1m-5.9 4a14.318 14.318 0 0 0 3.5 2.7 4.328 4.328 0 0 0 1.2.5 2.073 2.073 0 0 0 2.1-.7 2.149 2.149 0 0 0 .2-2.3 4.357 4.357 0 0 0-1.4-1.3c-.8-.6-1.4-1.1-2.2-1.7a3.229 3.229 0 0 0-1.7-1 2.226 2.226 0 0 0-2.2 1.2 2.33 2.33 0 0 0 .5 2.6m10.3 6a13.78 13.78 0 0 0 1.6.6 4.735 4.735 0 0 0 1.7.1 1.87 1.87 0 0 0 1.1-2.8 2.55 2.55 0 0 0-1.2-.8c-.4-.1-.7-.3-1.2-.4-.4-.1-.8-.3-1.1-.4a2.155 2.155 0 0 0-1.7.5c-1.1.9-.7 2.5.8 3.2m1.7 7.4c.3.1.6.1.9.2a2.082 2.082 0 0 0 1.3-.3 1.866 1.866 0 0 0 .6-2.3 1.589 1.589 0 0 0-1-.8 5.274 5.274 0 0 0-1.2-.3 1.956 1.956 0 0 0-2 1.3 1.771 1.771 0 0 0 1.4 2.2m-8.8-2.9a9.143 9.143 0 0 0 1.4.7 5.257 5.257 0 0 0 1.7.4 1.993 1.993 0 0 0 2.1-2.4 2.094 2.094 0 0 0-1.1-1.5c-.4-.2-.8-.4-1.3-.6s-1-.5-1.5-.7a1.979 1.979 0 0 0-1.8.4 2.389 2.389 0 0 0 .5 3.7m-9.2-6.8c.5.6 1 1.1 1.5 1.6a9.55 9.55 0 0 0 1.6 1.2 2.56 2.56 0 0 0 1.9.4 2.107 2.107 0 0 0 1.6-1.3 2.221 2.221 0 0 0-.4-2.2c-.4-.4-.8-.7-1.2-1.1-.6-.5-1.1-1-1.6-1.5a2.842 2.842 0 0 0-1.7-.9 2.2 2.2 0 0 0-2 1.2 2.292 2.292 0 0 0 .3 2.6m183-22.3c-6.5 0-13.9 2.2-18.3 7.4V7.9a.645.645 0 0 0-.6-.6h-17a.645.645 0 0 0-.6.6v98.2a.645.645 0 0 0 .6.6h17.1a.645.645 0 0 0 .6-.6V67c-.1-7.5 4.3-13.5 12.6-13.5 8.8 0 12.5 6.2 12.5 13.7V106a.645.645 0 0 0 .6.6h17.1a.645.645 0 0 0 .6-.6V64c-.1-14.6-8-26.6-25.2-26.6m50-31.7a11.25 11.25 0 1 0 11.2 10 11.663 11.663 0 0 0-11.2-10m8.5 33.5h-17.1a.645.645 0 0 0-.6.6v66.4a.645.645 0 0 0 .6.6h17.1a.645.645 0 0 0 .6-.6V39.8a.576.576 0 0 0-.6-.6m50.9 53c-9.2 0-17-7.1-17-19.4 0-12.4 7.8-19.2 17-19.2 9.3 0 16.7 6.9 16.7 19.2.1 12.4-7.3 19.4-16.7 19.4m3.9-54.8c-10 0-17.4 4.4-20.5 9.2V7.9a.645.645 0 0 0-.6-.6h-16.8a.645.645 0 0 0-.6.6v98.2a.645.645 0 0 0 .6.6h16.6a.645.645 0 0 0 .6-.6v-7.6c3.6 5.8 10.7 9.9 20 9.9 19.2 0 31.8-15.2 31.8-35.7 0-20-11.3-35.3-31.1-35.3m140.5 53.7a33.431 33.431 0 0 1-4.9.4c-5.2 0-8-1.9-8-7.8V55.4h13a.645.645 0 0 0 .6-.6v-15a.645.645 0 0 0-.6-.6h-13V19.6a.645.645 0 0 0-.6-.6h-16.9a.645.645 0 0 0-.6.6v19.6h-11.7a.645.645 0 0 0-.6.6v15a.645.645 0 0 0 .6.6h11.6v31.4c0 13 8.2 20.9 21.4 20.9a26.84 26.84 0 0 0 9.9-1.5.675.675 0 0 0 .4-.6v-14c.1-.3-.3-.6-.6-.5m118.6 1.1c-9.6 0-16.7-7.3-16.7-19.4s7.4-19.1 16.7-19.1 16.8 6.9 16.8 18.9c0 12.3-7.5 19.6-16.8 19.6m33.9-84.8h-17a.645.645 0 0 0-.6.6v38c-1.9-3.6-7.4-8.4-19.1-8.4-19.1 0-32.4 15.5-32.4 35.3 0 20.5 13.7 35.6 32.9 35.6 9.1 0 15.9-4.1 18.9-9.5v7.2a.645.645 0 0 0 .6.6h16.5a.645.645 0 0 0 .6-.6V7.9c.2-.3-.1-.5-.4-.5m-125.8 57.9c.4-6.2 5.6-13.3 15.1-13.3 10.4 0 14.8 6.6 15.1 13.3Zm14.8-28.2c-17.3 0-33.2 14-33.2 35.6 0 22.8 16.3 36.1 34.9 36.1 13.8 0 23.6-6.8 28.4-15.8a.553.553 0 0 0-.3-.8l-13.7-5.9a.574.574 0 0 0-.7.2c-2.6 4-6.9 6.6-13.6 6.6-9.1 0-16.6-6.5-17-15.4h47.8a.56.56 0 0 0 .6-.5c.1-1 .2-3.1.2-5.1 0-21.6-12.5-35-33.4-35Zm-109.1 28.5-9.6-2.1c-3.7-.7-6.2-2.6-6.2-5.8 0-3.8 3.8-6.7 8.6-6.7 6.6 0 9.6 3.7 10.7 7.3a.68.68 0 0 0 .8.4l13.6-5.3a.517.517 0 0 0 .3-.7c-2.4-7-9.6-15.5-25.6-15.5-14.6 0-25.3 10-25.3 22.1 0 9.5 5.9 17.6 18.9 20.4l8.9 2.1c5.2 1.1 7.3 3.3 7.3 6.3 0 3.6-2.9 6.7-8.9 6.7-7.7 0-11.6-4.6-12.3-9.7a.587.587 0 0 0-.7-.5l-14.5 3.2a.634.634 0 0 0-.5.6c1.1 7.7 8.2 20.3 28.1 20.3 17.7 0 26.2-11.3 26.2-22.2.3-9.8-6.4-18.1-19.8-20.9m-233.5 20.2-15-5a.68.68 0 0 0-.8.4c-1.7 5.1-6.3 10.8-15.3 10.8-9.3 0-17.3-6.9-17.3-19.1s7.8-18.9 17.2-18.9c7.8 0 12 4.2 14.1 9a.517.517 0 0 0 .7.3l15.3-5.3a.569.569 0 0 0 .4-.7c-3.7-10.5-13.9-20.2-30.9-20.2-19.6 0-35 15-35 35.8 0 20.7 15.6 35.8 35.6 35.8 17.7 0 28.2-11.2 31.4-22.2.1-.2-.1-.6-.4-.7" style="fill:#ccc"/></svg>