<svg id="Layer_1" data-name="Layer 1" xmlns="http://www.w3.org/2000/svg" viewBox="0 0 607.741 252.686"><defs><style>.cls-1{fill:#ccc;}</style></defs><g id="layer1"><path id="path8026" class="cls-1" d="M207,17.137c-9.362-7.245-15.65-12.527-22.916-3.191-9.24,11.873-25.47,15.586-74.649-4.878C54.4-13.843,14.826,10.158,1.357,42.155-3.223,53.05,4.379,55.007,15.31,59.582c2.708,1.138,5.081,1.947,7.815,2.8,7.282,2.038,14.352,4.517,17.8-3.675,7.027-16.688,26.938-20.587,51.983-10.166,27.916,11.623,48.29,17.107,66.025,17.788,24.933.958,44.8-7.846,59.058-26.166,7.261-9.336-1.628-15.783-10.991-23.029M142.309,173.888c11.405,0,20.671-.484,20.671-11.863V94.93c0-11.378-9.266-11.862-20.671-11.862s-20.667.484-20.667,11.862v67.1c0,11.379,9.262,11.863,20.667,11.863M34.833,98.249A95.341,95.341,0,0,0,15.31,156.333c0,53.121,43.349,96.353,96.64,96.353a97.2,97.2,0,0,0,77.585-38.918c6.814-9.128-3.218-15.07-12.373-21.863s-13.985-11.847-20.789-2.718a55.347,55.347,0,0,1-99.735-32.854,55.5,55.5,0,0,1,39.433-52.854c10.943-3.256,8.5-13.336,5.229-24.236S95.178,60.747,84.241,64A97.426,97.426,0,0,0,34.833,98.249"/></g><path class="cls-1" d="M223.633,154.012v-38.67h-9.386v-4.3l9.51-.526.7-17.394h4.7v17.394h17.421v4.83H229.163v39.083c0,7.671,1.928,12.852,10.213,12.852a21.7,21.7,0,0,0,7.534-1.9l1.451,4.48c-3.48,1.226-7.321,2.252-9.812,2.252C227.012,172.107,223.633,164.775,223.633,154.012Z"/><path class="cls-1" d="M256.875,155.651c0-13.351,12.039-19.71,38.769-22.662.175-9.236-2.353-19.123-14.166-19.123-8.11,0-15.118,4-19.147,7.058l-2.553-4.105c4.254-3,12.589-7.808,22.35-7.808,14.241,0,19.046,10.337,19.046,23.2v38.393H296.5l-.6-7.809h-.275c-6.132,4.956-13.441,9.31-21.324,9.31C264.783,172.107,256.875,166.926,256.875,155.651Zm38.769,1.99V137.192c-24.679,2.854-33.113,8.585-33.113,18.172,0,8.622,5.831,11.939,12.74,11.939C282.153,167.3,288.211,163.974,295.644,157.641Z"/><path class="cls-1" d="M318.947,110.512h4.681l.6,9.323h.276c5.456-6.118,12.288-10.824,19-10.824,9.636,0,14.454,4.855,16.594,12.264,6.82-7.509,13.466-12.264,20.4-12.264,11.964,0,17.97,7.533,17.97,23.051v38.544h-5.53V132.789c0-12.741-4.254-18.8-13.466-18.8-5.656,0-11.363,3.754-18,11.288v45.327h-5.53V132.789c0-12.741-4.254-18.8-13.466-18.8-5.431,0-11.362,3.754-17.994,11.288v45.327h-5.533Z"/><path class="cls-1" d="M412.016,140.672c0-19.6,12.74-31.661,26.2-31.661,14.241,0,23,10.136,23,27.807a25.945,25.945,0,0,1-.312,4.5H417.7c.2,15.169,9.084,26.006,22.625,26.006A27.083,27.083,0,0,0,456.467,162l2.277,4.2c-4.731,2.954-10.137,5.906-18.947,5.906C424.455,172.107,412.016,160.32,412.016,140.672Zm44-3.905c0-15.343-6.958-22.977-17.747-22.977-10.162,0-19.347,8.611-20.6,22.977Z"/><path class="cls-1" d="M472.987,140.672c0-19.4,12.314-31.661,26.656-31.661,7.208,0,12.114,2.728,18.121,7.383l-.3-11.038V80.578h5.531v90.028h-4.681l-.6-7.784h-.276c-4.931,4.931-11.613,9.285-19.6,9.285C482.773,172.107,472.987,160.944,472.987,140.672Zm44.476,16.62V121.65c-6.333-5.632-11.613-7.735-17.521-7.735-11.939,0-21.149,11.664-21.149,26.732,0,15.993,7.107,26.555,19.847,26.555C505.274,167.2,511.155,163.724,517.463,157.292Z"/><path class="cls-1" d="M540.426,91.091a5.031,5.031,0,0,1,10.059,0,5.031,5.031,0,0,1-10.059,0Zm2.151,19.421h5.532v60.094h-5.532Z"/><path class="cls-1" d="M563.441,155.651c0-13.351,12.04-19.71,38.769-22.662.175-9.236-2.353-19.123-14.166-19.123-8.11,0-15.118,4-19.147,7.058l-2.552-4.105c4.254-3,12.589-7.808,22.349-7.808,14.242,0,19.047,10.337,19.047,23.2v38.393h-4.679l-.6-7.809h-.276c-6.131,4.956-13.44,9.31-21.323,9.31C571.349,172.107,563.441,166.926,563.441,155.651Zm38.769,1.99V137.192c-24.679,2.854-33.113,8.585-33.113,18.172,0,8.622,5.831,11.939,12.74,11.939C588.72,167.3,594.777,163.974,602.21,157.641Z"/></svg>