<svg id="Layer_1" data-name="Layer 1" xmlns="http://www.w3.org/2000/svg" viewBox="0 0 669.939 306.114"><defs><style>.cls-1{fill:#e5e5e5;}.cls-2{fill:#ccc;}</style></defs><path class="cls-1" d="M629.52,81.347a25.4,25.4,0,0,1-10.13-17.62,25.759,25.759,0,0,1,0-5.34,18.981,18.981,0,0,1-.54,2.64,19.2,19.2,0,0,1-1.9,4.48,18.829,18.829,0,0,1-24,7.78h0a25.238,25.238,0,0,1,11.71,10.34l.13.23.14.25a25.235,25.235,0,0,1,3.11,15.14h.07a18.789,18.789,0,0,1,25.93-15.22A25.136,25.136,0,0,1,629.52,81.347Z"/><path class="cls-1" d="M567.81,116.967a25.34,25.34,0,0,0,27.75,1.56,24.119,24.119,0,0,0,2.39-1.5v.05a18.783,18.783,0,0,0,0,30.31h0a25.35,25.35,0,0,0-27.69-1.52,22.9,22.9,0,0,0-1.94,1.23,18.82,18.82,0,0,0-.48-30.11Z"/><path class="cls-1" d="M557.69,22.637h0a25.372,25.372,0,0,0,15,26h0a18.831,18.831,0,0,0-26.23,15.09h0a25.379,25.379,0,0,0-15-26h0a18.83,18.83,0,0,0,26.28-15.12Z"/><path class="cls-2" d="M568.28,147.1c-.26.21-.53.4-.81.59Z"/><path class="cls-2" d="M314.37,151.787c-5.61-2.58-10.94-5.46-16.57-7.54a104.294,104.294,0,0,0-55.85-4.95c-6.75,1.23-13.09,3.7-17.74,9.07a21.46,21.46,0,0,0,6.59,33c6.76,3.54,14.1,5.26,21.52,6.67,11.17,2.11,22.42,3.87,33.51,6.36a78,78,0,0,1,26.9,11.63q19.639,13.38,20.22,37.16c.41,16.19-4.05,30.6-15.68,42.28-8.78,8.82-19.64,13.95-31.53,17.06-13,3.39-26.18,4.07-39.51,3.3a121.313,121.313,0,0,1-38-8,79.31,79.31,0,0,1-23-13.68,2.15,2.15,0,0,1-.74-2.94c3.77-8.69,9.14-16,17.38-21.12a12.014,12.014,0,0,1,1.24.86c13.33,11.43,29.08,16.29,46.34,17,10.18.42,20.3.07,30.17-2.81a36.583,36.583,0,0,0,14.27-7.37c10.44-9.16,10.9-26.14.91-34.78-4.11-3.55-9-5.71-14.06-7.4-8.81-2.94-17.94-4.28-27.1-5.49-14-1.85-27.71-4.66-40.26-11.51-13.42-7.32-22-18.24-24.49-33.54-3.57-21.89,5.59-41.61,24.62-53.23,10.7-6.53,22.42-10,34.76-11.35a130.905,130.905,0,0,1,59.2,6.62,72.4,72.4,0,0,1,19.15,10,2.179,2.179,0,0,1,.94,2.74C325.27,138.617,320.08,147.307,314.37,151.787Z"/><path class="cls-2" d="M515.5,242.577c-4.78,22.06-16.32,39.52-35.71,51.35-17.13,10.45-35.9,13.84-55.69,11.46-25.14-3-45-15.19-59.95-35.54-10.46-14.28-16.23-30.44-18.27-47.94-2.34-20-.54-39.53,7.2-58.23,9.46-22.84,25.65-39,48.88-47.84,15.85-6,32.25-7.28,49-5.44,22,2.41,41.28,11,58.27,25a2.24,2.24,0,0,1,.7,2.48,37.437,37.437,0,0,1-16.82,20.15c-.66-.48-1.25-.87-1.8-1.32a77.461,77.461,0,0,0-44.36-17.6c-10.42-.75-20.7-.41-30.56,3.49-17.65,7-28.75,20-34.76,37.65-5.11,15-5.2,31.43-2.79,47.06a64.08,64.08,0,0,0,4.35,15.64c7.71,17.92,20.65,29.86,40.1,33.63,13.94,2.71,27.53,1.37,39.81-6.55,9.88-6.38,15.64-15.78,18.8-26.9a61.554,61.554,0,0,0,2.36-18.1h-67.4a2.248,2.248,0,0,1-2-1.19c-2.18-4.3-2.18-12.72-2.18-12.72s0-7.16,2.16-11.29a2.312,2.312,0,0,1,2.05-1.2h99c.36,3.72.76,7.21,1,10.7C517.73,220.477,517.88,231.587,515.5,242.577Z"/><path class="cls-2" d="M170.52,173.147c-4.77-22.06-16.32-39.52-35.71-51.35-17.12-10.44-35.9-13.84-55.68-11.45-25.14,3-45.06,15.18-60,35.53C8.72,160.157,2.95,176.317.95,193.817c-2.33,20-.54,39.53,7.21,58.23,9.41,22.85,25.59,38.98,48.79,47.85,15.84,6,32.25,7.27,49,5.44,22-2.42,41.27-11,58.27-25.05a2.27,2.27,0,0,0,.69-2.49,37.391,37.391,0,0,0-16.8-20.14c-.65.48-1.25.88-1.8,1.33a77.562,77.562,0,0,1-44.36,17.64c-10.41.75-20.7.4-30.56-3.49-17.64-7-28.74-20-34.75-37.65-5.11-15-5.2-31.43-2.8-47.07a64.235,64.235,0,0,1,4.36-15.64c7.71-17.91,20.65-29.85,40.09-33.63,14-2.7,27.54-1.37,39.82,6.56,9.88,6.37,15.64,15.78,18.8,26.89a61.236,61.236,0,0,1,2.4,18.09H71.88a2.241,2.241,0,0,0-2,1.18c-2.18,4.31-2.18,12.72-2.18,12.72s0,7.17,2.16,11.29a2.3,2.3,0,0,0,2,1.2h99c.36-3.72.76-7.2,1-10.7C172.75,195.257,172.95,184.137,170.52,173.147Z"/><path class="cls-2" d="M666.54,119.537a25.408,25.408,0,0,0-34.66-9.28,24.836,24.836,0,0,0-2.39,1.57,25.167,25.167,0,0,0-6.76,7.48l-.25.43a25.34,25.34,0,0,0,.12,25.14l.15.26a25.35,25.35,0,0,0,43.75-25.6Z"/><path class="cls-2" d="M543.16,48.3a25.34,25.34,0,0,1-6.91,33.08,26.979,26.979,0,0,1-2.36,1.54,25.366,25.366,0,1,1,9.27-34.62Z"/><path class="cls-2" d="M608.09,22.527a25.37,25.37,0,1,0-15,26.07,24.6,24.6,0,0,0,2.51-1.27,25.358,25.358,0,0,0,12.52-24.8Z"/><path class="cls-2" d="M604.84,155.137a25.35,25.35,0,1,1-37.37-7.45c.28-.19.55-.38.81-.59a22.9,22.9,0,0,1,1.94-1.23,25.32,25.32,0,0,1,34.6,9.231l.022.039Z"/><path class="cls-2" d="M604.95,84.157l-.14-.25-.13-.23a25.35,25.35,0,0,0-21.51-12.44h-.6a25.351,25.351,0,0,0-21.52,12.42l.32.34c.1.12.2.24.31.35h0c-.11-.11-.21-.23-.31-.35l-.32-.34c-.1.16-.19.33-.29.5a25.342,25.342,0,0,0,.15,25.1l.14.24a25.31,25.31,0,0,0,34.48,9,24.031,24.031,0,0,0,2.42-1.47,24.993,24.993,0,0,0,6.79-7.52A25.357,25.357,0,0,0,604.95,84.157Zm-22.13-12.23.08.23h0Z"/><path class="cls-2" d="M666.54,48.3a25.35,25.35,0,0,1-6.91,33.08,26.979,26.979,0,0,1-2.36,1.54,25.308,25.308,0,0,1-22.5,1.42c-.24-.12-.49-.22-.73-.32a25.39,25.39,0,0,1-14.65-20.29,25.759,25.759,0,0,1,0-5.34V58a25.31,25.31,0,0,1,12.56-18.97,24.02,24.02,0,0,1,2.47-1.25A25.331,25.331,0,0,1,666.54,48.3Z"/></svg>