<svg id="Layer_1" data-name="Layer 1" xmlns="http://www.w3.org/2000/svg" viewBox="0 0 426.148 100.28"><defs><clipPath id="clip-path"><path class="cls-1" d="M407 0h19.148v80H407z"/></clipPath><style>.cls-1,.cls-2{fill:#ccc}.cls-2{fill-rule:evenodd}</style></defs><g id="surface1"><path class="cls-2" d="M50.141 52.8c-4.5 9.148-15.75 9.516-29.371 9V18.727c-.016-.278-.032-.555.2-.59 17.98-1.367 29.168 2.379 31.328 16.84.918 6.132.047 13.339-2.152 17.82m2.932-48.953C46.215.715 37.277.047 27.551.008V0H.016v.23a1.759 1.759 0 0 0 0 .481v72.234H0v7.008h27.535v-.008c9.625-.031 18.485-.675 25.344-3.652 12.918-5.6 20.363-17.727 20.363-36.227 0-18.636-7.379-30.39-20.164-36.222M94.781 44.766c1.254-6.575 5.231-11.852 12.336-11.746 6.6.1 10.192 5.285 11.16 11.746Zm25.848-21.93c-7.024-3.211-18.809-3.223-25.848-.391-12.449 5.016-22.023 18.282-18.4 36.028 2.84 13.929 13.172 21.664 28.391 22.91 14.775 1.207 28.205-5.469 31.328-19.183h-17.428c-2.395 4.926-8.938 7.981-15.664 5.871C98 66.5 95 61.586 94.781 55.535h42.492c.422-16.308-5.726-27.7-16.644-32.7M253.383 62.781c-7.094.93-12-4.113-12.727-10.769-.992-9.129 2.114-16.012 9.4-17.035a10.964 10.964 0 0 1 8.023 1.761c7.082 5.477 7.035 24.5-4.695 26.043m27.609-40.953h-18.212l.008 7.352c-3.8-5.582-8.945-9.719-18.8-8.887a23.316 23.316 0 0 0-13.9 6.07C225 31.008 222.293 38.1 221.66 45.941c-.633 7.879.981 16.618 5.289 22.52 4.117 5.637 11.574 9.016 19.578 9.008a18.416 18.416 0 0 0 14.688-7.051c.336-.41.683-1.141 1.371-1.176.051 6.926.285 13.363-3.133 16.449-3.387 3.055-12.1 2.879-15.078 0a6.606 6.606 0 0 1-1.176-1.957c-.3-.652-.637-1.371-.976-2.156h-18.6c1.059 9.442 6.5 14.656 15.074 17.035 8.508 2.36 20.176 2.317 28.2-.785 7.421-2.867 12.511-9.648 13.7-18.4.761-5.606.394-12.117.394-18.965V21.83M377.719 69.047c-4.727 1.617-11.637.7-12.926-3.719a7.489 7.489 0 0 1 .195-4.7c2.1-5.535 12.824-5.008 18.6-7.441-.035-.168.074-.188.2-.2.168-.035.184.078.2.2.364 7.238-.871 14.007-6.265 15.859m24.664-12.726c0-6.625.465-13.422 0-19.187C401.2 22.5 386.988 19.2 371.059 20.293c-12.329.848-22.543 6.371-23.106 19.578h17.621c.684-1.488.715-2.707 1.571-3.914 3.171-4.488 15.246-4.773 16.839 1.176 1.629 6.1-3.726 6.656-8.812 7.437-10.7 1.645-21.41 2.262-26.633 9.008-4.9 6.336-3.176 17.969 1.57 22.715 3.356 3.355 8.657 5 13.9 5.285a27.786 27.786 0 0 0 18.4-5.48 7.978 7.978 0 0 1 2.156-1.375 13.111 13.111 0 0 0 .977 5.093h18.992c-2.644-5.9-2.148-14.921-2.152-23.5M175.648 66.109c-3.816 4.442-18 4.418-17.23-3.523.281-2.879 3.836-4.336 6.855-5.09 9.567-2.4 21.446-3.344 26.434-9.6 2.523-3.164 3.586-9.5 2.543-14.1a16.021 16.021 0 0 0-5.09-7.832c-5.4-4.414-15.215-6.321-25.262-5.676-12 .77-21.464 5.6-22.515 18.6h17.472c.4-1.586.567-2.95 1.719-4.114 3.461-3.508 15.227-3.148 15.074 2.153-.066 2.379-2.875 3.886-5.089 4.7-7.211 2.64-17.989 2.762-23.5 6.07a15.362 15.362 0 0 0-7.636 12.731 17.8 17.8 0 0 0 5.285 13.9c10.1 9.824 36.633 9.883 46.211-.59 2.805-3.07 4.387-7.629 4.695-12.918h-18.009c-.394 2.031-.679 3.793-1.957 5.281M324.262 48.063c0 2.617-.2 5.164-.414 7.339a16.3 16.3 0 0 1-1.153 4.051c-1.918 4.692-9.074 9.035-15.273 4.895-2-1.34-3.211-4.176-3.324-7.047-.426-10.625-.278-35.442-.278-35.442s-4.234.036-10.6.028h-.578c-2.231 0-4.707-.012-7.344-.028-.016 0-.012.024-.027.028h-.415v25.89h.055c-.312 14.438.559 27.391 10.57 31.844a23.367 23.367 0 0 0 5.286 1.567c7.961 1.308 15.058-.969 19.382-4.5 1.633-1.336 2.649-3.18 4.114-4.5v7.636h18.6V21.859h-18.6"/><path class="cls-1" d="M407 0h19.148v80H407z"/><path class="cls-2" d="M407.281 79.816h18.864V.125h-18.864Z" style="clip-path:url(#clip-path)"/><path class="cls-2" d="M199.34 79.816h19V22.055h-19ZM199.34 14.809h19V.125h-19Z"/></g></svg>