<svg id="Layer_1" data-name="Layer 1" xmlns="http://www.w3.org/2000/svg" viewBox="0 0 399.844 120.253"><defs><style>.cls-1{fill:#ccc}</style></defs><path class="cls-1" d="M213.388 68.126c5.991-8.727 12.149-17.345 17.894-26.231 2.464-3.811 5.326-5.406 9.855-5.168 6.314.331 12.657.061 18.988.109 1.09.008 2.525-.475 3.138.831.6 1.271-.623 2.129-1.274 3.022-7.162 9.822-14.255 19.7-21.6 29.38-2.289 3.019-2.294 5.36-.224 8.479 8.1 12.206 15.989 24.551 23.914 36.872.767 1.192 2.41 2.38 1.532 3.915-.858 1.5-2.731.707-4.137.722-7 .075-14-.156-20.988.108-3.98.15-6.469-1.212-8.5-4.662-5.157-8.743-10.613-17.311-16.027-25.9-.827-1.313-1.2-3.106-3.659-3.9 0 9.515-.264 18.764.1 27.988.2 5.008-1.238 6.911-6.419 6.5a110.543 110.543 0 0 0-16.479-.007c-4.692.331-6.023-1.394-6-5.947.142-33.982.071-67.965.068-101.948 0-12.164 0-12.164 12.127-12.164 3.831 0 7.679.219 11.49-.06 3.972-.29 5.208 1.25 5.18 5.15-.144 19.655-.065 39.313-.065 58.97v3.465ZM115.061 49.341c8.482-12.009 19.142-16.013 32.047-14.447 13.452 1.633 22.023 10.726 22.656 26.082.762 18.456.249 36.963.325 55.448.01 2.475-.977 3.69-3.544 3.673-7.161-.046-14.324-.077-21.485.016-3.7.049-3.825-2.31-3.821-5q.035-20.235 0-40.471c0-1.665 0-3.332-.089-4.994-.371-7.128-3.343-10.886-9.2-11.7-7.692-1.063-13.486 1.994-15.77 8.336a24.169 24.169 0 0 0-1.129 8.366c.026 13.324-.1 26.649.08 39.97.055 4-1.012 5.763-5.336 5.55-6.313-.31-12.658-.217-18.982-.028-3.533.105-4.655-1.353-4.644-4.728q.115-36.972-.007-73.945c-.012-3.453 1.246-4.779 4.681-4.7 6.326.151 12.666.239 18.984-.03 4.278-.182 5.7 1.58 5.267 5.595-.194 1.808-.033 3.651-.033 7.007ZM345.529 48.115c7.447-10.407 17.414-14.4 29.361-13.417 13.9 1.145 22.491 9.631 24.157 23.519 1.414 11.781.476 23.623.67 35.436.117 7.159-.079 14.323.058 21.481.068 3.542-1.079 5.163-4.9 5.021-6.319-.237-12.664-.272-18.979.01-4.118.183-5.074-1.562-5.036-5.307.147-14.653.2-29.31 0-43.961-.135-10.339-6.159-14.945-16.067-12.747-5.9 1.309-9.763 5.987-9.923 13.282-.3 13.648-.172 27.306-.211 40.96-.023 7.7-.014 7.7-7.6 7.7-5.5 0-11-.144-16.485.051-3.423.122-4.719-1.052-4.7-4.58q.158-37.218.007-74.436c-.012-3.3 1.28-4.412 4.431-4.35 6.326.125 12.665.237 18.982-.036 4.193-.181 5.748 1.412 5.421 5.5-.134 1.726-.515 3.602.814 5.874ZM.112 59.6C.111 41.777.28 23.955 0 6.141-.074 1.2 1.572-.275 6.3.041 11.6.4 16.949.118 22.279.124c6.509.008 6.527.012 6.53 6.784q.014 34.223 0 68.445c0 12.823-.146 25.649.079 38.468.081 4.6-1.06 6.747-6.142 6.366a131.741 131.741 0 0 0-16.977-.02c-4.318.236-5.808-1.141-5.754-5.616C.243 96.235.113 77.915.112 59.6ZM272.942 78.086c0-12.145.112-24.292-.065-36.434-.055-3.739 1.305-5 4.942-4.894 6.484.191 12.978.145 19.465.017 3.171-.063 4.5 1.158 4.5 4.369q-.079 37.184.006 74.367c.008 3.406-1.295 4.741-4.761 4.634-6.317-.194-12.651-.243-18.963.015-3.926.161-5.254-1.2-5.192-5.142.189-12.308.067-24.618.068-36.932ZM72.4 78.8c0 11.994-.135 23.991.075 35.982.073 4.168-1.347 5.581-5.493 5.381-6.15-.3-12.33-.217-18.488-.022-3.41.108-4.818-1.069-4.808-4.56q.11-37.233 0-74.466c-.008-3.249 1.332-4.409 4.5-4.343 6.495.134 13 .2 19.49-.023 3.846-.131 4.819 1.531 4.777 5.068-.142 12.33-.053 24.659-.053 36.983ZM57.669 27.045c-14.507 0-14.507 0-14.452-14.381.025-6.532.025-6.537 6.788-6.542 5.989 0 11.98.07 17.969-.027 2.965-.048 4.24 1.143 4.153 4.147-.125 4.322-.09 8.652-.012 12.976.051 2.8-1.3 3.882-3.964 3.838-3.493-.056-6.988-.014-10.482-.011ZM286.987 27.047c-2.991 0-6-.191-8.968.047-4.015.322-5.892-1.076-5.629-5.318.236-3.806.093-7.639.047-11.459-.035-2.842 1.076-4.276 4.132-4.227q10.215.165 20.433 0c2.907-.046 4.325.971 4.244 4.029q-.169 6.474 0 12.956c.079 3.089-1.429 4.093-4.289 4-3.323-.111-6.648-.028-9.97-.028Z"/></svg>